<svg id="f9bac933-65eb-42be-915f-65975f881f0c" data-name="Layer 1" xmlns="http://www.w3.org/2000/svg" viewBox="0 0 16 13.852"><title>logo-icon</title><g id="ecda5813-e3e0-4502-95c2-30978d733e8a" data-name="fea563c6-f110-4647-bc6b-c071ba9af734"><g id="efcf427c-6da0-4ebc-b2c4-74824abdacc8" data-name="a037383b-8afb-42d1-957a-23acb04fa8b9"><path d="M15.99292,2.9887a2.82834,2.82834,0,0,1-1.0435,2.1725.17056.17056,0,0,0-.06284.205,5.65505,5.65505,0,0,1,.00111,3.10433c-.03157.11238.01143.16655.09.23668a2.85839,2.85839,0,0,1-1.24559,4.96735,3.483,3.483,0,0,1-3.29124-.5886.37346.37346,0,0,0-.37769-.07382,7.834,7.834,0,0,1-4.15281-.00395.351.351,0,0,0-.35611.07439,3.48578,3.48578,0,0,1-3.31135.584A2.92224,2.92224,0,0,1,.0459,11.3008,2.6907,2.6907,0,0,1,.99311,8.72575.24887.24887,0,0,0,1.0925,8.4325,5.60689,5.60689,0,0,1,1.093,5.41105a.24777.24777,0,0,0-.10079-.29248A2.76,2.76,0,0,1,.25541,1.84812,3.36337,3.36337,0,0,1,3.33758.00253,3.44693,3.44693,0,0,1,5.55424.76319.344.344,0,0,0,5.9087.83975,7.87694,7.87694,0,0,1,10.26613.8871a3.69032,3.69032,0,0,0-.78352,1.12254,6.33328,6.33328,0,0,0-2.78247-.05078c-.14732.02872-.20442.06605-.1503.22155A2.44307,2.44307,0,0,1,6.6356,3.469,3.32573,3.32573,0,0,1,2.60643,5.912c-.15088-.02832-.186-.00753-.2102.12293a4.85742,4.85742,0,0,0-.00287,1.76357c.02425.13467.06057.16723.22251.13674a3.67521,3.67521,0,0,1,1.76367.07409,2.939,2.939,0,0,1,2.17872,3.62535c-.04351.15146-.04777.21873.15494.25646a6.64377,6.64377,0,0,0,2.6001-.012c.141-.02938.17488-.06013.13285-.19563A2.66329,2.66329,0,0,1,9.4947,9.878a3.39982,3.39982,0,0,1,3.8719-1.94639c.13833.0258.205.02964.23116-.12351a4.88908,4.88908,0,0,0-.01126-1.80545c-.02012-.10008-.04736-.1287-.16771-.0976a2.91839,2.91839,0,0,1-.80275.08124A3.16,3.16,0,0,1,9.317,2.9904l1.40533-.00024c.008.06355.01551.12715.024.19064a1.87963,1.87963,0,0,0,2.20951,1.50839,1.816,1.816,0,0,0,1.626-1.69431ZM3.3492,9.12975a1.84327,1.84327,0,0,0-1.93278,1.71809,1.84292,1.84292,0,0,0,1.92574,1.72485,1.84425,1.84425,0,0,0,1.92076-1.70785A1.83882,1.83882,0,0,0,3.3492,9.12975Zm11.22445,1.71967a1.84144,1.84144,0,0,0-1.9298-1.71974,1.84149,1.84149,0,0,0-1.91512,1.712,1.83919,1.83919,0,0,0,1.91833,1.7309A1.84134,1.84134,0,0,0,14.57365,10.84942ZM3.34643,1.27154A1.84889,1.84889,0,0,0,1.416,2.99437,1.84463,1.84463,0,0,0,3.32125,4.71806a1.8504,1.8504,0,0,0,1.942-1.7118A1.84447,1.84447,0,0,0,3.34643,1.27154Z" transform="translate(0.00001 -0.00002)"/><path d="M10.72228,2.99016q-.70266.00012-1.40535.00033a2.556,2.556,0,0,1,.16568-.98085A3.69032,3.69032,0,0,1,10.26613.8871,3.54736,3.54736,0,0,1,12.27906.01816,3.33179,3.33179,0,0,1,15.91033,2.316a1.83618,1.83618,0,0,1,.08259.67275q-.70554.003-1.41109.00614c-.01518-.084-.03255-.16787-.04518-.25226a1.77352,1.77352,0,0,0-1.42613-1.407,2.049,2.049,0,0,0-1.97274.61094A1.86328,1.86328,0,0,0,10.72228,2.99016Z" transform="translate(0.00001 -0.00002)"/><path d="M5.55424.76319A3.39691,3.39691,0,0,0,3.33758.00253,3.36339,3.36339,0,0,0,.25541,1.84811,2.76006,2.76006,0,0,0,.99222,5.11857a.24777.24777,0,0,1,.10079.29248,5.60679,5.60679,0,0,0-.0005,3.02145.39176.39176,0,0,1,.00126.16584A1.81657,1.81657,0,0,0,2.4326,7.90858a.24884.24884,0,0,1-.03923-.11009,4.8572,4.8572,0,0,1,.00286-1.76357c.02421-.13046.05933-.15125.2102-.12293A3.32573,3.32573,0,0,0,6.6356,3.469a2.45583,2.45583,0,0,0-.08577-1.28856A2.87814,2.87814,0,0,0,5.55424.76319Zm-2.233,3.95487A1.84464,1.84464,0,0,1,1.416,2.99437a1.8489,1.8489,0,0,1,1.9304-1.72283A1.84448,1.84448,0,0,1,5.26321,3.00626,1.85043,1.85043,0,0,1,3.32125,4.71806Z" transform="translate(0.00001 -0.00002)"/><path d="M2.5905,3.00086a.60978.60978,0,0,1,.05706-.25833A.62431.62431,0,0,1,2.8068,2.53a.832.832,0,0,1,.23428-.14259.75779.75779,0,0,1,.28838-.05382.78142.78142,0,0,1,.29135.05382A.82415.82415,0,0,1,3.85816,2.53a.62738.62738,0,0,1,.15918.21257.61072.61072,0,0,1,.05706.25833.70154.70154,0,0,1-.73191.66737q-.00651,0-.013,0a.79023.79023,0,0,1-.28838-.05117.75361.75361,0,0,1-.23428-.1426A.6272.6272,0,0,1,2.5905,3.00086Z" transform="translate(0.00001 -0.00002)"/></g></g></svg>